<svg xmlns="http://www.w3.org/2000/svg" xmlns:xlink="http://www.w3.org/1999/xlink" width="375" zoomAndPan="magnify" viewBox="0 0 375 91.5" height="91.5" preserveAspectRatio="xMidYMid meet" version="1.0"><defs><g><g id="id1"/></g><clipPath id="id2"><path d="M 1.019531 13.582031 L 81.597656 13.582031 L 81.597656 77.417969 L 1.019531 77.417969 Z M 1.019531 13.582031 " clip-rule="nonzero"/></clipPath></defs><g clip-path="url(#id2)"><path fill="rgb(0%, 0%, 0%)" d="M 17.347656 75.046875 C 14.96875 73.816406 11.121094 71.566406 8.796875 70.042969 C 4.125 66.976562 4.007812 66.824219 3.96875 63.757812 C 3.957031 62.890625 3.417969 56.289062 2.773438 49.089844 C 1.28125 32.480469 1.027344 27.945312 1.484375 25.773438 C 2.035156 23.140625 2.796875 22.191406 5.402344 20.886719 C 6.648438 20.261719 7.933594 19.746094 8.257812 19.746094 C 8.582031 19.746094 9.070312 19.625 9.347656 19.472656 C 11.636719 18.207031 20.515625 15.742188 24.851562 15.164062 C 34.609375 13.871094 47.148438 13.617188 56.457031 14.527344 C 62.285156 15.097656 63.683594 15.472656 64.878906 16.792969 C 65.527344 17.503906 66.828125 21.199219 66.828125 22.316406 C 66.828125 22.789062 66.945312 23.792969 67.09375 24.550781 C 67.238281 25.3125 67.507812 27.238281 67.695312 28.835938 C 67.882812 30.433594 68.121094 31.871094 68.226562 32.035156 C 68.328125 32.199219 69.417969 32.609375 70.644531 32.941406 C 74.113281 33.886719 77.09375 35.464844 79.136719 37.4375 L 80.925781 39.164062 L 81.085938 46.929688 C 81.171875 51.203125 81.328125 56.574219 81.433594 58.871094 L 81.621094 63.039062 L 80.066406 64.046875 C 77.875 65.464844 76.550781 66.015625 74.820312 66.226562 C 73.996094 66.324219 72.152344 66.769531 70.722656 67.214844 C 65.609375 68.808594 61.246094 69.957031 59.328125 70.210938 C 58.929688 70.265625 57.980469 70.453125 57.214844 70.632812 C 56.453125 70.816406 55.722656 70.898438 55.59375 70.816406 C 55.464844 70.738281 54.726562 70.851562 53.953125 71.070312 C 53.179688 71.289062 51.703125 71.617188 50.671875 71.796875 C 49.640625 71.972656 46.785156 72.492188 44.324219 72.945312 C 39.824219 73.773438 35.402344 74.316406 31.273438 74.542969 C 29.59375 74.636719 28.839844 74.816406 28.21875 75.273438 C 27.765625 75.609375 26.886719 76.007812 26.265625 76.164062 C 25.644531 76.320312 24.683594 76.582031 24.128906 76.746094 C 21.949219 77.382812 21.796875 77.34375 17.347656 75.046875 Z M 25.339844 75.121094 C 26.3125 74.726562 27.269531 74.402344 27.464844 74.402344 C 27.660156 74.402344 27.894531 74.199219 27.992188 73.953125 C 28.207031 73.390625 27.113281 63.585938 26.722656 62.609375 C 26.566406 62.214844 26.40625 58.519531 26.363281 54.402344 L 26.292969 46.917969 L 25.007812 45.429688 C 23.886719 44.132812 23.160156 43.675781 19.238281 41.808594 C 14.878906 39.734375 10.175781 38.269531 8.292969 38.398438 C 7.1875 38.472656 5.78125 39.511719 4.601562 41.117188 C 3.328125 42.855469 3.257812 43.660156 3.886719 49.375 C 4.5 54.953125 4.785156 57.988281 5.074219 62.015625 C 5.34375 65.742188 5.382812 65.902344 6.160156 66.539062 C 8.382812 68.367188 13.96875 71.917969 16.914062 73.375 C 18.742188 74.277344 20.558594 75.199219 20.953125 75.421875 C 22.019531 76.019531 23.347656 75.929688 25.335938 75.121094 Z M 20.277344 57.300781 C 20.175781 57.03125 20.089844 55.792969 20.089844 54.554688 C 20.089844 52.285156 19.632812 49.527344 19.152344 48.890625 C 19.011719 48.703125 18.480469 48.460938 17.976562 48.351562 C 17.472656 48.238281 16.605469 47.90625 16.054688 47.613281 C 15.5 47.316406 14.941406 47.074219 14.804688 47.074219 C 14.671875 47.074219 13.664062 46.542969 12.5625 45.890625 C 10.992188 44.960938 10.625 44.621094 10.875 44.324219 C 11.230469 43.894531 11.929688 44.121094 13.832031 45.28125 C 14.433594 45.652344 15.925781 46.316406 17.148438 46.761719 C 19.316406 47.554688 19.386719 47.609375 20.140625 49.164062 C 21.136719 51.207031 21.566406 55.699219 20.890625 56.984375 C 20.535156 57.664062 20.4375 57.714844 20.277344 57.300781 Z M 33.261719 73.382812 C 34.789062 73.136719 36.207031 73 36.410156 73.078125 C 36.613281 73.152344 38.117188 73.039062 39.757812 72.824219 C 43.554688 72.324219 64.851562 68.101562 65.261719 67.765625 C 65.429688 67.628906 66.921875 67.1875 68.578125 66.789062 C 70.398438 66.351562 71.730469 65.871094 71.949219 65.578125 C 72.363281 65.015625 72.449219 59.820312 72.050781 59.199219 C 71.847656 58.878906 71.355469 58.964844 69.386719 59.671875 C 68.058594 60.148438 65.542969 60.953125 63.796875 61.464844 C 62.050781 61.972656 58.992188 62.878906 56.996094 63.484375 C 54.035156 64.378906 52.601562 64.636719 49.207031 64.894531 C 46.917969 65.070312 43.699219 65.34375 42.050781 65.507812 C 40.40625 65.671875 36.902344 65.789062 34.261719 65.773438 C 31.625 65.753906 29.289062 65.746094 29.070312 65.753906 C 28.757812 65.769531 28.714844 66.15625 28.859375 67.570312 C 28.964844 68.558594 29.125 70.210938 29.21875 71.238281 C 29.382812 73.042969 29.6875 73.828125 30.226562 73.828125 C 30.367188 73.828125 31.734375 73.628906 33.261719 73.382812 Z M 76.652344 64.582031 C 77.359375 64.242188 78.503906 63.5 79.199219 62.933594 L 80.46875 61.898438 L 80.230469 55.277344 C 80.101562 51.636719 80.03125 46.761719 80.074219 44.449219 L 80.15625 40.238281 L 78.300781 38.390625 C 76.21875 36.3125 73.21875 34.699219 70.386719 34.132812 C 69.460938 33.949219 68.183594 33.683594 67.546875 33.546875 C 66.914062 33.410156 65.550781 33.210938 64.519531 33.109375 C 62.863281 32.941406 62.550781 32.992188 61.847656 33.546875 C 61.414062 33.890625 61.054688 34.363281 61.054688 34.59375 C 61.054688 34.828125 60.789062 35.375 60.46875 35.8125 C 60.042969 36.382812 59.863281 37.101562 59.828125 38.359375 C 59.78125 40.144531 60.152344 41.035156 60.953125 41.035156 C 61.175781 41.035156 61.871094 41.359375 62.5 41.753906 C 63.125 42.148438 63.964844 42.472656 64.359375 42.472656 C 64.753906 42.472656 65.5 42.65625 66.023438 42.875 C 66.542969 43.097656 67.75 43.519531 68.703125 43.8125 C 70.917969 44.492188 72.671875 45.65625 73.507812 47.003906 C 74.121094 47.996094 74.167969 48.390625 74.175781 52.574219 C 74.183594 56.628906 74.128906 57.140625 73.625 57.695312 C 73.128906 58.242188 73.105469 58.460938 73.394531 59.667969 C 73.574219 60.414062 73.871094 61.804688 74.054688 62.753906 C 74.511719 65.113281 74.542969 65.199219 74.984375 65.199219 C 75.199219 65.199219 75.949219 64.921875 76.652344 64.582031 Z M 75.054688 47.855469 C 74.933594 47.574219 74.890625 46.183594 74.957031 44.765625 C 75.03125 43.21875 74.972656 42.183594 74.804688 42.183594 C 74.320312 42.183594 71.039062 40.5 70.3125 39.882812 C 69.820312 39.460938 69.707031 39.195312 69.925781 38.976562 C 70.363281 38.542969 73.574219 40.300781 74.945312 41.722656 C 75.996094 42.8125 76.023438 42.894531 75.90625 44.601562 C 75.835938 45.566406 75.667969 46.808594 75.527344 47.363281 C 75.324219 48.171875 75.230469 48.269531 75.054688 47.855469 Z M 66.53125 38.292969 C 65.984375 37.640625 66.417969 37.4375 67.234375 37.972656 C 67.628906 38.230469 68.152344 38.363281 68.398438 38.269531 C 68.644531 38.171875 68.84375 38.238281 68.84375 38.414062 C 68.84375 38.894531 66.949219 38.796875 66.53125 38.292969 Z M 44.464844 64.386719 C 54.328125 63.53125 53.609375 63.660156 60.480469 61.480469 C 62.9375 60.699219 66.25 59.65625 67.835938 59.164062 C 71.605469 57.992188 72.757812 57.230469 73.195312 55.636719 C 73.683594 53.855469 73.339844 49.171875 72.652344 48.230469 C 72.363281 47.832031 72.042969 47.285156 71.941406 47.011719 C 71.644531 46.21875 69.109375 44.785156 67.980469 44.773438 C 67.425781 44.769531 65.867188 44.300781 64.519531 43.738281 C 59.957031 41.828125 60.191406 41.871094 54.777344 41.875 C 51.078125 41.875 49.414062 41.988281 48.542969 42.300781 C 47.886719 42.53125 44.691406 42.933594 41.4375 43.191406 C 34.257812 43.761719 32.441406 44.015625 29.492188 44.839844 L 27.214844 45.480469 L 27.394531 52.679688 C 27.503906 57.070312 27.742188 60.773438 28.003906 62.175781 L 28.445312 64.535156 C 28.511719 64.902344 39.707031 64.796875 44.464844 64.386719 Z M 27.914062 44.339844 C 28.609375 44.101562 29.433594 43.792969 29.753906 43.648438 C 30.6875 43.230469 34.128906 42.78125 37.6875 42.605469 C 41.4375 42.421875 45.054688 42.039062 48.648438 41.449219 C 50 41.226562 52.691406 40.984375 54.636719 40.910156 C 56.582031 40.839844 58.300781 40.699219 58.460938 40.601562 C 58.617188 40.503906 58.746094 39.59375 58.746094 38.578125 C 58.746094 36.457031 59.324219 34.769531 60.597656 33.175781 L 61.476562 32.074219 L 64.078125 32.15625 C 66.558594 32.234375 66.6875 32.210938 66.773438 31.613281 C 66.925781 30.558594 65.4375 20.753906 64.929688 19.492188 C 64.359375 18.074219 63.25 17.082031 61.570312 16.492188 C 60.859375 16.242188 57.121094 15.785156 52.769531 15.417969 C 44.503906 14.722656 43.890625 14.734375 28.886719 16.011719 C 23.71875 16.449219 22.171875 16.699219 18.355469 17.710938 C 11.921875 19.417969 4.4375 22.304688 3.769531 23.339844 C 3.5625 23.65625 3.113281 25.019531 2.773438 26.359375 C 2.203125 28.605469 2.175781 29.070312 2.464844 32.113281 C 2.636719 33.933594 2.8125 36.417969 2.855469 37.636719 C 2.894531 38.851562 3.03125 39.945312 3.15625 40.070312 C 3.28125 40.195312 3.769531 39.878906 4.246094 39.371094 C 4.722656 38.863281 5.25 38.445312 5.417969 38.445312 C 5.585938 38.445312 6.367188 38.121094 7.160156 37.726562 C 8.789062 36.910156 9.601562 36.839844 10.40625 37.449219 C 10.714844 37.679688 11.425781 37.875 11.992188 37.882812 C 12.558594 37.890625 13.539062 38.09375 14.171875 38.335938 C 14.808594 38.582031 15.652344 38.851562 16.046875 38.941406 C 17.5 39.265625 24.570312 43.078125 25.28125 43.917969 C 26.113281 44.902344 26.222656 44.921875 27.914062 44.339844 Z M 27.914062 44.339844 " fill-opacity="1" fill-rule="nonzero"/></g><g fill="rgb(0%, 0%, 0%)" fill-opacity="1"><g transform="translate(90.146122, 60.152306)"><g><path d="M 2.875 -3.453125 L 5.765625 -3.453125 L 5.765625 -26.984375 L 2.875 -26.984375 L 2.875 -30.5 L 16.578125 -30.46875 C 17.804688 -30.46875 18.960938 -30.234375 20.046875 -29.765625 C 21.140625 -29.304688 22.085938 -28.675781 22.890625 -27.875 C 23.691406 -27.082031 24.320312 -26.144531 24.78125 -25.0625 C 25.25 -23.976562 25.484375 -22.8125 25.484375 -21.5625 C 25.484375 -20.257812 25.117188 -19.070312 24.390625 -18 C 23.671875 -16.925781 22.640625 -16.070312 21.296875 -15.4375 C 21.953125 -15.082031 22.546875 -14.675781 23.078125 -14.21875 C 23.617188 -13.757812 24.078125 -13.253906 24.453125 -12.703125 C 24.828125 -12.148438 25.117188 -11.566406 25.328125 -10.953125 C 25.535156 -10.335938 25.640625 -9.707031 25.640625 -9.0625 C 25.640625 -7.789062 25.40625 -6.601562 24.9375 -5.5 C 24.476562 -4.40625 23.847656 -3.445312 23.046875 -2.625 C 22.242188 -1.8125 21.300781 -1.171875 20.21875 -0.703125 C 19.144531 -0.234375 17.992188 0 16.765625 0 L 2.875 0 Z M 9.703125 -13.546875 L 9.703125 -3.453125 L 16.796875 -3.453125 C 17.441406 -3.453125 18.035156 -3.613281 18.578125 -3.9375 C 19.128906 -4.257812 19.613281 -4.675781 20.03125 -5.1875 C 20.445312 -5.707031 20.769531 -6.296875 21 -6.953125 C 21.238281 -7.609375 21.359375 -8.28125 21.359375 -8.96875 C 21.359375 -9.550781 21.238281 -10.117188 21 -10.671875 C 20.757812 -11.222656 20.429688 -11.710938 20.015625 -12.140625 C 19.609375 -12.566406 19.128906 -12.90625 18.578125 -13.15625 C 18.023438 -13.414062 17.429688 -13.546875 16.796875 -13.546875 Z M 9.703125 -26.984375 L 9.703125 -17.046875 L 16.625 -17.046875 C 17.257812 -17.046875 17.851562 -17.171875 18.40625 -17.421875 C 18.96875 -17.679688 19.453125 -18.023438 19.859375 -18.453125 C 20.273438 -18.878906 20.601562 -19.375 20.84375 -19.9375 C 21.082031 -20.5 21.203125 -21.082031 21.203125 -21.6875 C 21.203125 -22.34375 21.082031 -22.988281 20.84375 -23.625 C 20.601562 -24.257812 20.273438 -24.820312 19.859375 -25.3125 C 19.441406 -25.8125 18.953125 -26.210938 18.390625 -26.515625 C 17.835938 -26.828125 17.25 -26.984375 16.625 -26.984375 Z M 9.703125 -26.984375 "/></g></g></g><g fill="rgb(0%, 0%, 0%)" fill-opacity="1"><g transform="translate(117.315996, 60.152306)"><g><path d="M 5.546875 -9.921875 C 5.546875 -9.335938 5.585938 -8.800781 5.671875 -8.3125 C 5.765625 -7.820312 5.890625 -7.351562 6.046875 -6.90625 C 6.546875 -5.570312 7.335938 -4.566406 8.421875 -3.890625 C 9.515625 -3.210938 10.753906 -2.875 12.140625 -2.875 C 13.222656 -2.875 14.273438 -3.023438 15.296875 -3.328125 C 16.328125 -3.628906 17.40625 -4.101562 18.53125 -4.75 L 20.03125 -2.1875 C 18.664062 -1.25 17.289062 -0.550781 15.90625 -0.09375 C 14.53125 0.351562 13.097656 0.578125 11.609375 0.578125 C 10.203125 0.578125 8.898438 0.34375 7.703125 -0.125 C 6.503906 -0.59375 5.472656 -1.285156 4.609375 -2.203125 C 3.742188 -3.128906 3.066406 -4.28125 2.578125 -5.65625 C 2.085938 -7.039062 1.84375 -8.648438 1.84375 -10.484375 C 1.84375 -11.972656 2.050781 -13.375 2.46875 -14.6875 C 2.882812 -16.007812 3.503906 -17.164062 4.328125 -18.15625 C 5.148438 -19.144531 6.171875 -19.925781 7.390625 -20.5 C 8.609375 -21.070312 10.03125 -21.359375 11.65625 -21.359375 C 13.21875 -21.359375 14.523438 -21.117188 15.578125 -20.640625 C 16.628906 -20.171875 17.488281 -19.539062 18.15625 -18.75 C 18.820312 -17.96875 19.320312 -17.070312 19.65625 -16.0625 C 20 -15.0625 20.238281 -14.039062 20.375 -13 C 20.445312 -12.488281 20.488281 -11.972656 20.5 -11.453125 C 20.519531 -10.929688 20.53125 -10.421875 20.53125 -9.921875 Z M 11.390625 -18.234375 C 10.523438 -18.234375 9.765625 -18.109375 9.109375 -17.859375 C 8.460938 -17.609375 7.910156 -17.25 7.453125 -16.78125 C 6.992188 -16.320312 6.628906 -15.757812 6.359375 -15.09375 C 6.085938 -14.425781 5.882812 -13.675781 5.75 -12.84375 L 16.53125 -12.84375 C 16.476562 -13.613281 16.351562 -14.328125 16.15625 -14.984375 C 15.96875 -15.640625 15.671875 -16.207031 15.265625 -16.6875 C 14.867188 -17.175781 14.351562 -17.554688 13.71875 -17.828125 C 13.09375 -18.097656 12.316406 -18.234375 11.390625 -18.234375 Z M 11.390625 -18.234375 "/></g></g></g><g fill="rgb(0%, 0%, 0%)" fill-opacity="1"><g transform="translate(140.928867, 60.152306)"><g><path d="M 8.03125 -20.8125 L 12.921875 -20.8125 L 12.921875 -17.78125 L 8 -17.78125 L 7.9375 -5.765625 C 7.9375 -4.953125 8.03125 -4.289062 8.21875 -3.78125 C 8.40625 -3.269531 8.707031 -2.914062 9.125 -2.71875 C 9.539062 -2.53125 10.007812 -2.4375 10.53125 -2.4375 C 11.09375 -2.4375 11.585938 -2.484375 12.015625 -2.578125 C 12.441406 -2.679688 12.910156 -2.851562 13.421875 -3.09375 L 14.28125 -0.578125 C 13.644531 -0.242188 12.96875 0.015625 12.25 0.203125 C 11.539062 0.398438 10.707031 0.5 9.75 0.5 C 8.832031 0.5 8.035156 0.390625 7.359375 0.171875 C 6.679688 -0.046875 6.113281 -0.414062 5.65625 -0.9375 C 5.195312 -1.46875 4.851562 -2.171875 4.625 -3.046875 C 4.394531 -3.921875 4.28125 -5.015625 4.28125 -6.328125 L 4.34375 -17.78125 L 1.03125 -17.78125 L 1.03125 -20.8125 L 4.375 -20.8125 L 4.375 -25.796875 L 8.03125 -27.53125 Z M 8.03125 -20.8125 "/></g></g></g><g fill="rgb(0%, 0%, 0%)" fill-opacity="1"><g transform="translate(156.242066, 60.152306)"><g><path d="M 8.03125 -20.8125 L 12.921875 -20.8125 L 12.921875 -17.78125 L 8 -17.78125 L 7.9375 -5.765625 C 7.9375 -4.953125 8.03125 -4.289062 8.21875 -3.78125 C 8.40625 -3.269531 8.707031 -2.914062 9.125 -2.71875 C 9.539062 -2.53125 10.007812 -2.4375 10.53125 -2.4375 C 11.09375 -2.4375 11.585938 -2.484375 12.015625 -2.578125 C 12.441406 -2.679688 12.910156 -2.851562 13.421875 -3.09375 L 14.28125 -0.578125 C 13.644531 -0.242188 12.96875 0.015625 12.25 0.203125 C 11.539062 0.398438 10.707031 0.5 9.75 0.5 C 8.832031 0.5 8.035156 0.390625 7.359375 0.171875 C 6.679688 -0.046875 6.113281 -0.414062 5.65625 -0.9375 C 5.195312 -1.46875 4.851562 -2.171875 4.625 -3.046875 C 4.394531 -3.921875 4.28125 -5.015625 4.28125 -6.328125 L 4.34375 -17.78125 L 1.03125 -17.78125 L 1.03125 -20.8125 L 4.375 -20.8125 L 4.375 -25.796875 L 8.03125 -27.53125 Z M 8.03125 -20.8125 "/></g></g></g><g fill="rgb(0%, 0%, 0%)" fill-opacity="1"><g transform="translate(171.555264, 60.152306)"><g><path d="M 5.546875 -9.921875 C 5.546875 -9.335938 5.585938 -8.800781 5.671875 -8.3125 C 5.765625 -7.820312 5.890625 -7.351562 6.046875 -6.90625 C 6.546875 -5.570312 7.335938 -4.566406 8.421875 -3.890625 C 9.515625 -3.210938 10.753906 -2.875 12.140625 -2.875 C 13.222656 -2.875 14.273438 -3.023438 15.296875 -3.328125 C 16.328125 -3.628906 17.40625 -4.101562 18.53125 -4.75 L 20.03125 -2.1875 C 18.664062 -1.25 17.289062 -0.550781 15.90625 -0.09375 C 14.53125 0.351562 13.097656 0.578125 11.609375 0.578125 C 10.203125 0.578125 8.898438 0.34375 7.703125 -0.125 C 6.503906 -0.59375 5.472656 -1.285156 4.609375 -2.203125 C 3.742188 -3.128906 3.066406 -4.28125 2.578125 -5.65625 C 2.085938 -7.039062 1.84375 -8.648438 1.84375 -10.484375 C 1.84375 -11.972656 2.050781 -13.375 2.46875 -14.6875 C 2.882812 -16.007812 3.503906 -17.164062 4.328125 -18.15625 C 5.148438 -19.144531 6.171875 -19.925781 7.390625 -20.5 C 8.609375 -21.070312 10.03125 -21.359375 11.65625 -21.359375 C 13.21875 -21.359375 14.523438 -21.117188 15.578125 -20.640625 C 16.628906 -20.171875 17.488281 -19.539062 18.15625 -18.75 C 18.820312 -17.96875 19.320312 -17.070312 19.65625 -16.0625 C 20 -15.0625 20.238281 -14.039062 20.375 -13 C 20.445312 -12.488281 20.488281 -11.972656 20.5 -11.453125 C 20.519531 -10.929688 20.53125 -10.421875 20.53125 -9.921875 Z M 11.390625 -18.234375 C 10.523438 -18.234375 9.765625 -18.109375 9.109375 -17.859375 C 8.460938 -17.609375 7.910156 -17.25 7.453125 -16.78125 C 6.992188 -16.320312 6.628906 -15.757812 6.359375 -15.09375 C 6.085938 -14.425781 5.882812 -13.675781 5.75 -12.84375 L 16.53125 -12.84375 C 16.476562 -13.613281 16.351562 -14.328125 16.15625 -14.984375 C 15.96875 -15.640625 15.671875 -16.207031 15.265625 -16.6875 C 14.867188 -17.175781 14.351562 -17.554688 13.71875 -17.828125 C 13.09375 -18.097656 12.316406 -18.234375 11.390625 -18.234375 Z M 11.390625 -18.234375 "/></g></g></g><g fill="rgb(0%, 0%, 0%)" fill-opacity="1"><g transform="translate(195.168135, 60.152306)"><g><path d="M 16.984375 -16.421875 L 13.15625 -16.421875 L 13.15625 -17.703125 C 12.71875 -17.703125 12.265625 -17.617188 11.796875 -17.453125 C 11.335938 -17.285156 10.90625 -17.03125 10.5 -16.6875 C 10.101562 -16.34375 9.753906 -15.90625 9.453125 -15.375 C 9.148438 -14.851562 8.929688 -14.226562 8.796875 -13.5 L 8.796875 -3.453125 L 12.34375 -3.453125 L 12.34375 0 L 2.015625 0 L 2.015625 -3.453125 L 4.890625 -3.453125 L 4.90625 -17.359375 L 2.015625 -17.359375 L 2.015625 -20.8125 L 8.65625 -20.8125 L 8.65625 -17.953125 C 8.894531 -18.378906 9.164062 -18.773438 9.46875 -19.140625 C 9.769531 -19.503906 10.101562 -19.820312 10.46875 -20.09375 C 10.84375 -20.375 11.253906 -20.59375 11.703125 -20.75 C 12.148438 -20.90625 12.632812 -20.984375 13.15625 -20.984375 C 13.851562 -20.984375 14.507812 -20.984375 15.125 -20.984375 C 15.75 -20.984375 16.367188 -20.96875 16.984375 -20.9375 Z M 16.984375 -16.421875 "/></g></g></g><g fill="rgb(0%, 0%, 0%)" fill-opacity="1"><g transform="translate(214.460353, 60.152306)"><g><path d="M 0 0 Z M 0 0 "/></g></g></g><g fill="rgb(0%, 0%, 0%)" fill-opacity="1"><g transform="translate(223.463388, 60.152306)"><g><path d="M 18.484375 -22.1875 C 18.484375 -23.363281 18.269531 -24.242188 17.84375 -24.828125 C 17.414062 -25.421875 16.941406 -25.875 16.421875 -26.1875 C 15.910156 -26.507812 15.347656 -26.753906 14.734375 -26.921875 C 14.117188 -27.085938 13.5 -27.171875 12.875 -27.171875 C 11.863281 -27.171875 10.972656 -27.050781 10.203125 -26.8125 C 9.441406 -26.582031 8.8125 -26.265625 8.3125 -25.859375 C 7.8125 -25.460938 7.429688 -24.992188 7.171875 -24.453125 C 6.921875 -23.921875 6.796875 -23.359375 6.796875 -22.765625 C 6.796875 -21.878906 6.953125 -21.164062 7.265625 -20.625 C 7.578125 -20.082031 7.972656 -19.644531 8.453125 -19.3125 C 8.941406 -18.988281 9.476562 -18.734375 10.0625 -18.546875 C 10.644531 -18.359375 11.203125 -18.171875 11.734375 -17.984375 L 15.796875 -16.65625 C 17.015625 -16.269531 18.085938 -15.828125 19.015625 -15.328125 C 19.953125 -14.835938 20.734375 -14.253906 21.359375 -13.578125 C 21.992188 -12.898438 22.472656 -12.117188 22.796875 -11.234375 C 23.128906 -10.347656 23.296875 -9.320312 23.296875 -8.15625 C 23.296875 -6.894531 23.035156 -5.726562 22.515625 -4.65625 C 22.003906 -3.582031 21.285156 -2.648438 20.359375 -1.859375 C 19.429688 -1.078125 18.328125 -0.460938 17.046875 -0.015625 C 15.765625 0.429688 14.363281 0.65625 12.84375 0.65625 C 11.269531 0.65625 9.925781 0.476562 8.8125 0.125 C 7.707031 -0.226562 6.773438 -0.703125 6.015625 -1.296875 C 5.265625 -1.890625 4.660156 -2.566406 4.203125 -3.328125 C 3.742188 -4.097656 3.390625 -4.882812 3.140625 -5.6875 L 1.609375 -5.6875 L 1.609375 -9.140625 L 6.671875 -9.140625 C 6.671875 -7.648438 6.828125 -6.597656 7.140625 -5.984375 C 7.453125 -5.367188 7.890625 -4.859375 8.453125 -4.453125 C 9.015625 -4.046875 9.6875 -3.738281 10.46875 -3.53125 C 11.25 -3.320312 12.109375 -3.21875 13.046875 -3.21875 C 13.953125 -3.21875 14.769531 -3.320312 15.5 -3.53125 C 16.226562 -3.75 16.847656 -4.0625 17.359375 -4.46875 C 17.878906 -4.875 18.273438 -5.367188 18.546875 -5.953125 C 18.828125 -6.535156 18.96875 -7.195312 18.96875 -7.9375 C 18.96875 -8.75 18.796875 -9.441406 18.453125 -10.015625 C 18.117188 -10.585938 17.679688 -11.070312 17.140625 -11.46875 C 16.609375 -11.875 16.019531 -12.203125 15.375 -12.453125 C 14.738281 -12.710938 14.128906 -12.9375 13.546875 -13.125 L 9.140625 -14.375 C 8.179688 -14.664062 7.300781 -15.035156 6.5 -15.484375 C 5.707031 -15.941406 5.023438 -16.5 4.453125 -17.15625 C 3.878906 -17.8125 3.4375 -18.578125 3.125 -19.453125 C 2.820312 -20.335938 2.671875 -21.351562 2.671875 -22.5 C 2.671875 -23.664062 2.898438 -24.757812 3.359375 -25.78125 C 3.816406 -26.800781 4.484375 -27.691406 5.359375 -28.453125 C 6.242188 -29.210938 7.328125 -29.8125 8.609375 -30.25 C 9.890625 -30.6875 11.351562 -30.90625 13 -30.90625 C 14.082031 -30.90625 15.082031 -30.773438 16 -30.515625 C 16.925781 -30.265625 17.757812 -29.90625 18.5 -29.4375 C 19.238281 -28.976562 19.894531 -28.425781 20.46875 -27.78125 C 21.039062 -27.132812 21.519531 -26.421875 21.90625 -25.640625 L 23.40625 -25.640625 L 23.40625 -22.1875 Z M 18.484375 -22.1875 "/></g></g></g><g fill="rgb(0%, 0%, 0%)" fill-opacity="1"><g transform="translate(247.779622, 60.152306)"><g><path d="M 5.546875 -9.921875 C 5.546875 -9.335938 5.585938 -8.800781 5.671875 -8.3125 C 5.765625 -7.820312 5.890625 -7.351562 6.046875 -6.90625 C 6.546875 -5.570312 7.335938 -4.566406 8.421875 -3.890625 C 9.515625 -3.210938 10.753906 -2.875 12.140625 -2.875 C 13.222656 -2.875 14.273438 -3.023438 15.296875 -3.328125 C 16.328125 -3.628906 17.40625 -4.101562 18.53125 -4.75 L 20.03125 -2.1875 C 18.664062 -1.25 17.289062 -0.550781 15.90625 -0.09375 C 14.53125 0.351562 13.097656 0.578125 11.609375 0.578125 C 10.203125 0.578125 8.898438 0.34375 7.703125 -0.125 C 6.503906 -0.59375 5.472656 -1.285156 4.609375 -2.203125 C 3.742188 -3.128906 3.066406 -4.28125 2.578125 -5.65625 C 2.085938 -7.039062 1.84375 -8.648438 1.84375 -10.484375 C 1.84375 -11.972656 2.050781 -13.375 2.46875 -14.6875 C 2.882812 -16.007812 3.503906 -17.164062 4.328125 -18.15625 C 5.148438 -19.144531 6.171875 -19.925781 7.390625 -20.5 C 8.609375 -21.070312 10.03125 -21.359375 11.65625 -21.359375 C 13.21875 -21.359375 14.523438 -21.117188 15.578125 -20.640625 C 16.628906 -20.171875 17.488281 -19.539062 18.15625 -18.75 C 18.820312 -17.96875 19.320312 -17.070312 19.65625 -16.0625 C 20 -15.0625 20.238281 -14.039062 20.375 -13 C 20.445312 -12.488281 20.488281 -11.972656 20.5 -11.453125 C 20.519531 -10.929688 20.53125 -10.421875 20.53125 -9.921875 Z M 11.390625 -18.234375 C 10.523438 -18.234375 9.765625 -18.109375 9.109375 -17.859375 C 8.460938 -17.609375 7.910156 -17.25 7.453125 -16.78125 C 6.992188 -16.320312 6.628906 -15.757812 6.359375 -15.09375 C 6.085938 -14.425781 5.882812 -13.675781 5.75 -12.84375 L 16.53125 -12.84375 C 16.476562 -13.613281 16.351562 -14.328125 16.15625 -14.984375 C 15.96875 -15.640625 15.671875 -16.207031 15.265625 -16.6875 C 14.867188 -17.175781 14.351562 -17.554688 13.71875 -17.828125 C 13.09375 -18.097656 12.316406 -18.234375 11.390625 -18.234375 Z M 11.390625 -18.234375 "/></g></g></g><g fill="rgb(0%, 0%, 0%)" fill-opacity="1"><g transform="translate(271.3925, 60.152306)"><g><path d="M 14.25 -1.921875 C 13.457031 -1.191406 12.582031 -0.59375 11.625 -0.125 C 10.664062 0.34375 9.578125 0.578125 8.359375 0.578125 C 7.335938 0.578125 6.398438 0.414062 5.546875 0.09375 C 4.703125 -0.21875 3.972656 -0.648438 3.359375 -1.203125 C 2.742188 -1.765625 2.265625 -2.414062 1.921875 -3.15625 C 1.578125 -3.894531 1.40625 -4.675781 1.40625 -5.5 C 1.40625 -6.382812 1.535156 -7.164062 1.796875 -7.84375 C 2.054688 -8.53125 2.40625 -9.125 2.84375 -9.625 C 3.28125 -10.132812 3.789062 -10.5625 4.375 -10.90625 C 4.957031 -11.25 5.566406 -11.519531 6.203125 -11.71875 C 6.835938 -11.925781 7.484375 -12.070312 8.140625 -12.15625 C 8.804688 -12.25 9.441406 -12.296875 10.046875 -12.296875 C 11.015625 -12.296875 11.828125 -12.265625 12.484375 -12.203125 C 13.140625 -12.148438 13.734375 -12.066406 14.265625 -11.953125 L 14.28125 -13.671875 C 14.28125 -14.398438 14.171875 -15.035156 13.953125 -15.578125 C 13.742188 -16.117188 13.445312 -16.566406 13.0625 -16.921875 C 12.675781 -17.285156 12.210938 -17.550781 11.671875 -17.71875 C 11.128906 -17.894531 10.519531 -17.984375 9.84375 -17.984375 C 9.21875 -17.984375 8.613281 -17.9375 8.03125 -17.84375 C 7.457031 -17.757812 6.921875 -17.644531 6.421875 -17.5 C 5.921875 -17.363281 5.457031 -17.207031 5.03125 -17.03125 C 4.613281 -16.851562 4.253906 -16.660156 3.953125 -16.453125 L 2.734375 -19.046875 C 3.234375 -19.367188 3.773438 -19.664062 4.359375 -19.9375 C 4.953125 -20.21875 5.570312 -20.453125 6.21875 -20.640625 C 6.863281 -20.835938 7.523438 -20.992188 8.203125 -21.109375 C 8.878906 -21.222656 9.546875 -21.28125 10.203125 -21.28125 C 11.410156 -21.28125 12.492188 -21.132812 13.453125 -20.84375 C 14.421875 -20.5625 15.238281 -20.117188 15.90625 -19.515625 C 16.582031 -18.910156 17.097656 -18.140625 17.453125 -17.203125 C 17.816406 -16.273438 18 -15.160156 18 -13.859375 L 17.984375 -3.453125 L 20.296875 -3.453125 L 20.296875 0 L 14.25 0 Z M 9.1875 -2.546875 C 9.675781 -2.546875 10.171875 -2.601562 10.671875 -2.71875 C 11.171875 -2.84375 11.640625 -3.007812 12.078125 -3.21875 C 12.515625 -3.425781 12.921875 -3.664062 13.296875 -3.9375 C 13.671875 -4.21875 13.988281 -4.503906 14.25 -4.796875 L 14.265625 -9.5 L 9.921875 -9.5 C 9.203125 -9.5 8.539062 -9.414062 7.9375 -9.25 C 7.34375 -9.09375 6.828125 -8.859375 6.390625 -8.546875 C 5.960938 -8.242188 5.628906 -7.863281 5.390625 -7.40625 C 5.148438 -6.957031 5.03125 -6.4375 5.03125 -5.84375 C 5.03125 -5.300781 5.128906 -4.820312 5.328125 -4.40625 C 5.523438 -4 5.804688 -3.65625 6.171875 -3.375 C 6.546875 -3.101562 6.988281 -2.894531 7.5 -2.75 C 8.007812 -2.613281 8.570312 -2.546875 9.1875 -2.546875 Z M 9.1875 -2.546875 "/></g></g></g><g fill="rgb(0%, 0%, 0%)" fill-opacity="1"><g transform="translate(293.900088, 60.152306)"><g><path d="M 8.03125 -20.8125 L 12.921875 -20.8125 L 12.921875 -17.78125 L 8 -17.78125 L 7.9375 -5.765625 C 7.9375 -4.953125 8.03125 -4.289062 8.21875 -3.78125 C 8.40625 -3.269531 8.707031 -2.914062 9.125 -2.71875 C 9.539062 -2.53125 10.007812 -2.4375 10.53125 -2.4375 C 11.09375 -2.4375 11.585938 -2.484375 12.015625 -2.578125 C 12.441406 -2.679688 12.910156 -2.851562 13.421875 -3.09375 L 14.28125 -0.578125 C 13.644531 -0.242188 12.96875 0.015625 12.25 0.203125 C 11.539062 0.398438 10.707031 0.5 9.75 0.5 C 8.832031 0.5 8.035156 0.390625 7.359375 0.171875 C 6.679688 -0.046875 6.113281 -0.414062 5.65625 -0.9375 C 5.195312 -1.46875 4.851562 -2.171875 4.625 -3.046875 C 4.394531 -3.921875 4.28125 -5.015625 4.28125 -6.328125 L 4.34375 -17.78125 L 1.03125 -17.78125 L 1.03125 -20.8125 L 4.375 -20.8125 L 4.375 -25.796875 L 8.03125 -27.53125 Z M 8.03125 -20.8125 "/></g></g></g><g fill="rgb(0%, 0%, 0%)" fill-opacity="1"><g transform="translate(309.213287, 60.152306)"><g><path d="M 1.84375 -20.8125 L 8.640625 -20.8125 L 8.640625 -3.453125 L 11.78125 -3.453125 L 11.78125 0 L 1.890625 0 L 1.890625 -3.453125 L 4.859375 -3.453125 L 4.859375 -17.359375 L 1.84375 -17.359375 Z M 4.15625 -28.1875 C 4.15625 -28.539062 4.222656 -28.875 4.359375 -29.1875 C 4.503906 -29.5 4.691406 -29.769531 4.921875 -30 C 5.160156 -30.238281 5.441406 -30.425781 5.765625 -30.5625 C 6.085938 -30.707031 6.429688 -30.78125 6.796875 -30.78125 C 7.140625 -30.78125 7.46875 -30.707031 7.78125 -30.5625 C 8.101562 -30.425781 8.378906 -30.238281 8.609375 -30 C 8.847656 -29.769531 9.035156 -29.5 9.171875 -29.1875 C 9.316406 -28.875 9.390625 -28.539062 9.390625 -28.1875 C 9.390625 -27.832031 9.316406 -27.492188 9.171875 -27.171875 C 9.035156 -26.847656 8.847656 -26.5625 8.609375 -26.3125 C 8.378906 -26.0625 8.101562 -25.863281 7.78125 -25.71875 C 7.46875 -25.582031 7.140625 -25.515625 6.796875 -25.515625 C 6.429688 -25.515625 6.085938 -25.582031 5.765625 -25.71875 C 5.441406 -25.863281 5.160156 -26.0625 4.921875 -26.3125 C 4.691406 -26.5625 4.503906 -26.847656 4.359375 -27.171875 C 4.222656 -27.492188 4.15625 -27.832031 4.15625 -28.1875 Z M 4.15625 -28.1875 "/></g></g></g><g fill="rgb(0%, 0%, 0%)" fill-opacity="1"><g transform="translate(322.416407, 60.152306)"><g><path d="M 15.71875 -3.453125 L 18.65625 -3.453125 L 18.65625 -12.96875 C 18.65625 -14.5625 18.25 -15.769531 17.4375 -16.59375 C 16.625 -17.414062 15.460938 -17.828125 13.953125 -17.828125 C 13.078125 -17.828125 12.195312 -17.617188 11.3125 -17.203125 C 10.425781 -16.785156 9.585938 -16.269531 8.796875 -15.65625 L 8.796875 -3.453125 L 11.734375 -3.453125 L 11.734375 0 L 2.015625 0 L 2.015625 -3.453125 L 4.90625 -3.453125 L 4.90625 -17.359375 L 2.015625 -17.359375 L 2.015625 -20.8125 L 8.640625 -20.8125 L 8.640625 -18.375 L 8.6875 -18.375 C 9.125 -18.757812 9.59375 -19.125 10.09375 -19.46875 C 10.601562 -19.820312 11.128906 -20.125 11.671875 -20.375 C 12.222656 -20.632812 12.796875 -20.835938 13.390625 -20.984375 C 13.984375 -21.128906 14.609375 -21.203125 15.265625 -21.203125 C 16.378906 -21.203125 17.382812 -21.046875 18.28125 -20.734375 C 19.1875 -20.429688 19.953125 -19.960938 20.578125 -19.328125 C 21.203125 -18.703125 21.6875 -17.894531 22.03125 -16.90625 C 22.375 -15.925781 22.546875 -14.765625 22.546875 -13.421875 L 22.546875 -3.453125 L 25.4375 -3.453125 L 25.4375 0 L 15.71875 0 Z M 15.71875 -3.453125 "/></g></g></g><g fill="rgb(0%, 0%, 0%)" fill-opacity="1"><g transform="translate(349.867625, 60.152306)"><g><path d="M 17.25 -1.828125 C 16.5625 -1.109375 15.765625 -0.546875 14.859375 -0.140625 C 13.953125 0.265625 12.925781 0.46875 11.78125 0.46875 C 10.375 0.46875 9.0625 0.222656 7.84375 -0.265625 C 6.632812 -0.753906 5.582031 -1.472656 4.6875 -2.421875 C 3.800781 -3.367188 3.101562 -4.523438 2.59375 -5.890625 C 2.09375 -7.265625 1.84375 -8.835938 1.84375 -10.609375 C 1.84375 -12.210938 2.082031 -13.675781 2.5625 -15 C 3.050781 -16.320312 3.738281 -17.445312 4.625 -18.375 C 5.507812 -19.3125 6.570312 -20.035156 7.8125 -20.546875 C 9.0625 -21.066406 10.453125 -21.328125 11.984375 -21.328125 C 13.023438 -21.328125 13.960938 -21.207031 14.796875 -20.96875 C 15.640625 -20.738281 16.457031 -20.332031 17.25 -19.75 L 17.25 -20.8125 L 20.984375 -20.8125 L 20.984375 -0.828125 C 20.984375 2.472656 20.203125 4.96875 18.640625 6.65625 C 17.078125 8.34375 14.648438 9.1875 11.359375 9.1875 C 10.628906 9.1875 9.867188 9.128906 9.078125 9.015625 C 8.285156 8.910156 7.503906 8.738281 6.734375 8.5 C 5.972656 8.269531 5.222656 7.972656 4.484375 7.609375 C 3.753906 7.253906 3.082031 6.816406 2.46875 6.296875 L 4.484375 3.25 C 4.878906 3.601562 5.332031 3.925781 5.84375 4.21875 C 6.363281 4.507812 6.921875 4.757812 7.515625 4.96875 C 8.109375 5.175781 8.71875 5.335938 9.34375 5.453125 C 9.976562 5.578125 10.609375 5.640625 11.234375 5.640625 C 12.265625 5.640625 13.15625 5.53125 13.90625 5.3125 C 14.664062 5.101562 15.289062 4.726562 15.78125 4.1875 C 16.269531 3.644531 16.632812 2.910156 16.875 1.984375 C 17.125 1.066406 17.25 -0.101562 17.25 -1.53125 Z M 12.265625 -2.796875 C 12.878906 -2.796875 13.4375 -2.851562 13.9375 -2.96875 C 14.445312 -3.09375 14.910156 -3.25 15.328125 -3.4375 C 15.742188 -3.632812 16.109375 -3.859375 16.421875 -4.109375 C 16.742188 -4.367188 17.019531 -4.640625 17.25 -4.921875 L 17.25 -16.3125 C 16.5625 -16.914062 15.769531 -17.351562 14.875 -17.625 C 13.988281 -17.894531 13.078125 -18.03125 12.140625 -18.03125 C 11.253906 -18.03125 10.421875 -17.863281 9.640625 -17.53125 C 8.867188 -17.207031 8.191406 -16.726562 7.609375 -16.09375 C 7.023438 -15.46875 6.566406 -14.695312 6.234375 -13.78125 C 5.898438 -12.875 5.734375 -11.832031 5.734375 -10.65625 C 5.734375 -9.363281 5.890625 -8.226562 6.203125 -7.25 C 6.523438 -6.269531 6.972656 -5.445312 7.546875 -4.78125 C 8.128906 -4.125 8.820312 -3.628906 9.625 -3.296875 C 10.425781 -2.960938 11.304688 -2.796875 12.265625 -2.796875 Z M 12.265625 -2.796875 "/></g></g></g></svg>